<svg xmlns="http://www.w3.org/2000/svg" width="726.11207" height="727.88558" viewBox="0 0 726.11207 727.88558"><title>admin_logo</title><path d="M839.785,879.73683c65.16845,23.072,131.66977,26.3571,198.57909,10.36765,169.40226-40.48239,285.51576-191.65949,279.61138-362.60272-6.05611-175.336-131.16094-319.65318-303.30333-349.88148-241.71895-42.446-455.69364,167.611-418.3312,410.69154a40.8575,40.8575,0,0,0,1.21088,4.49967c.42873-2.62972,1.29962-5.27319,1.22053-7.88792A345.54853,345.54853,0,0,1,622.145,448.16745c11.04916-28.64856,29.20453-52.28,44.0682-78.21985q1.74657-4.873,3.49466-9.74367.85884-1.21456,1.71766-2.42916l.11126-.1404q.77265-1.6609,1.54529-3.32185c.803-1.0706,1.63719-2.11931,2.40449-3.21487,76.40015-109.08382,181.38408-161.19814,313.70737-147.36916,129.12225,13.49445,221.73057,83.80581,273.45928,202.57141,71.5155,164.19458-.04477,356.942-166.50556,434.21731q-3.60528,1.35358-7.223,2.7134-6.10615,2.84763-12.21227,5.69529c-.773,1.01849-1.32543,2.45962-2.35082,2.99465-44.39461,23.16417-91.67166,35.37039-141.681,37.42479C901.22192,890.63767,870.66232,883.77252,839.785,879.73683Z" transform="translate(-592.07864 -172.13084)" fill="#5c2838"/><path d="M666.2139,369.94879c-14.86442,25.93864-33.01979,49.5701-44.06895,78.21866a345.54853,345.54853,0,0,0-23.37263,136.75612c.07909,2.61473-.7918,5.2582-1.22053,7.88792q.61392,3.8358,1.22769,7.67153l.10243.45165.06931.30087c.16345.11431.473.24225.464.3412a5.42559,5.42559,0,0,1-.273,1.01353q4.60362,19.78339,9.20593,39.561.71156,2.70822,1.42576,5.428l.61747,1.894,1.78986,5.757-.06307-.1755q8.41235,18.62655,16.82442,37.25183.64179-2.21961,1.28357-4.43927c1.0131.29968,2.51335.29548,2.93187.96611.73679,1.18059-1.13,5.49462,2.28145,2.874,1.969-1.51264,1.79187-6.14468,2.0288-9.41272.08664-1.1949-1.42122-2.50535-2.20169-3.76308,8.2668-1.858,17.18747-5.91418,20.29079,7.24216.64855,2.74944,1.34513,6.34679,5.35349,6.89477q-3.7264-8.57059-7.45275-17.14118-.68123-1.68357-1.36248-3.36712-.56325-1.44014-1.12745-2.88281-.58785-.32109-1.1737-.63708c-6.87852-11.3508-10.59621-23.95681-14.384-36.51824-.99635-3.30417-1.4357-6.77626-2.13084-10.17123,1.23666,2.85074,2.34693,5.76486,3.7382,8.53807,2.365,4.71414,4.90683,9.33955,7.37434,14.00226a8.4603,8.4603,0,0,0-.098-2.65512c-12.50777-33.05071-11.84067-67.60018-10.041-101.89179.9336-17.78941,4.91382-35.69853,9.72-52.93987,7.23145-25.94127,17.89769-50.749,33.164-73.10292,6.51633-9.54158,10.18289-21.88363,22.55968-26.582a254.51817,254.51817,0,0,1,69.10276-64.36431c-2.86186-5.24564-6.207-4.69851-9.83018-.81984,1.72764-6.176-2.80543-10.87078-3.7854-16.31559-1.24485-6.91654,6.67518-10.45473,7.8152-16.79688a39.47941,39.47941,0,0,0-5.39887,2.13955C722.05734,311.5264,693.32542,339.80048,666.2139,369.94879ZM625.93775,513.10705c-.64675,1.44319-2.19676,4.90188-3.74677,8.36056-1.48072-2.57227-3.86047-5.02787-4.21353-7.74654-.43667-3.36246,2.39827-5.76537,5.7089-6.32851C625.69558,507.05076,626.905,508.64122,625.93775,513.10705ZM645.53841,671.9593c-.13946-.34688-.46882-.77408-.3655-1.01826a.73938.73938,0,0,1,1.37547.54292C646.45105,671.73514,645.92095,671.81869,645.53841,671.9593Z" transform="translate(-592.07864 -172.13084)" fill="#2c250e"/><path d="M660.91091,692.66853c-4.00837-.548-4.70495-4.14536-5.3535-6.8948-3.10332-13.15634-12.024-9.10014-20.29079-7.24216.78047,1.25773,2.28833,2.56818,2.20169,3.76308-.23693,3.268-.05977,7.90008-2.0288,9.41272-3.41141,2.62064-1.54466-1.69339-2.28145-2.874-.41852-.67063-1.91877-.66643-2.93187-.96611q-.64179,2.21964-1.28144,4.43836.35879.95328.71332,1.90835c3.05312.27769,2.81154,2.32425,2.39736,4.46349l19.92318,34.86126,1.72509,2.40708.06465.10219q.73,1.146,1.45991,2.292l.18469.28824c3.50046.169,4.06548,2.43776,3.79541,5.30384q1.70988,2.24073,3.41978,4.48143c2.628.15271,3.60965,1.44348,2.7644,3.99723l.19714.2481c2.37728-.62449,3.22418.15657,2.33041,2.53634l.32408.25264.84631,1.07369a.48554.48554,0,0,0,.33947.62667c9.19236-1.70041,6.15148,5.50771,7.13085,9.78819q12.25122,13.98024,24.50241,27.9605l2.08113,1.7158q1.03974,1.17,2.07947,2.3399l1.39588,1.35965-.05087-.06569,2.21743,1.69838a1.8151,1.8151,0,0,1,.64655,1.08831q27.54874,20.809,55.09766,41.614,12.752,7.66,25.5037,15.3278l45.90824,19.10177q1.922.33015,3.84328.66015c30.87664,4.03555,61.43624,10.9007,92.8948,9.60837,50.00933-2.0544,97.28638-14.26062,141.681-37.42479,1.02539-.535,1.5778-1.97616,2.34967-2.99455-74.03184,26.8211-148.67031,29.53919-223.76867,4.96969-20.17812-6.60157-40.47152-13.36889-57.63132-26.67961l.0612.06886c-4.59462.04072-7.89717-2.37887-10.75481-5.64568l.15463.14018q-1.486-.95589-2.972-1.91176c-35.94663-20.14044-65.16534-47.98357-91.12316-79.56-3.95061,4.00053-8.06011,7.75579-13.82654,8.9532q-1.34163,1.3498-2.68342,2.69939-.23034.13485-.46075.26958l.47107-.25919,2.70019-2.68271c-4.811-5.8941-.95484-10.73292,1.86033-15.74142.81176-1.44422,3.554-3.26423-.37331-4.3698-2.53715-.71422-6.04955,1.37529-7.44808-2.60031q4.337-.95459,8.67387-1.90918-1.27344-1.86417-2.54687-3.7284c-4.51878-1.0715-9.69788-1.35057-9.58338-7.98238l-.03137-.03154c-.57437-6.21061-7.72883-10.485-5.18494-17.61315Q661.57737,693.99016,660.91091,692.66853Z" transform="translate(-592.07864 -172.13084)" fill="#2c250e"/><path d="M662.62814,748.41355q-1.7099-2.2407-3.41876-4.48055-1.89719-2.65152-3.79643-5.30472l-.18354-.28633q-.72938-1.14507-1.46106-2.29394l-.06292-.10228q-.86169-1.20355-1.72682-2.407-9.96159-17.43063-19.92167-34.86191-1.19793-2.23206-2.39887-4.46284-.3556-.9546-.71333-1.90835-8.41533-18.62424-16.82654-37.25092c11.45967,46.03567,34.57359,85.90656,65.174,121.618,8.65262,10.09781,18.75568,18.95328,28.19318,28.37812q1.9734-1.0092,3.94746-2.01758a1.819,1.819,0,0,0-.64643-1.089q-1.10865-.8495-2.21755-1.69772l.05033.06583q-.69819-.67977-1.39535-1.35978-1.03972-1.17-2.07877-2.3406-1.04024-.85824-2.08182-1.7151-12.25121-13.98027-24.50078-27.95926-3.56463-4.89345-7.13248-9.78944a.47724.47724,0,0,1-.3312-.6294c-.27935-.35881-.567-.71488-.85458-1.071,0,0-.32408-.25264-.31829-.255q-1.1623-1.26939-2.3362-2.534s-.19714-.2481-.19221-.24989Q664.01776,750.40945,662.62814,748.41355Z" transform="translate(-592.07864 -172.13084)" fill="#fb7406"/><path d="M709.4328,803.03326q-1.97391,1.00858-3.94746,2.01758c15.625,15.03411,33.15727,27.4977,51.81543,38.43973.00006-.0048-.23324.048-.23324.048q1.28026.52878,2.5606,1.05762,1.074.62544,2.14775,1.25064a.86838.86838,0,0,0,1.01561.3944q.87-.79482,1.73883-1.5901Q736.98156,823.8422,709.4328,803.03326Z" transform="translate(-592.07864 -172.13084)" fill="#d83910"/><path d="M779.42823,856.14228q5.3,1.91515,10.603,3.83154-12.74735-7.664-25.50074-15.32657-.86937.801-1.739,1.594.12113.624.22283,1.25211,3.52112,1.96631,7.04228,3.93269,1.18446.6207,2.369,1.24184,2.14094,1.1439,4.28183,2.2869Z" transform="translate(-592.07864 -172.13084)" fill="#fb7406"/><path d="M612.18127,655.23022q-.8949-2.87838-1.78985-5.757Q611.28627,652.35152,612.18127,655.23022Z" transform="translate(-592.07864 -172.13084)" fill="#fb7406"/><path d="M609.77394,647.57927q-.71353-2.7169-1.42576-5.428Q609.06239,644.871,609.77394,647.57927Z" transform="translate(-592.07864 -172.13084)" fill="#fb7406"/><path d="M761.77588,845.84686q-1.07384-.62527-2.14775-1.25063Q760.70194,845.22145,761.77588,845.84686Z" transform="translate(-592.07864 -172.13084)" fill="#fb7406"/><path d="M757.06753,843.53861s.2333-.05284.23324-.048S757.06753,843.53861,757.06753,843.53861Z" transform="translate(-592.07864 -172.13084)" fill="#fb7406"/><path d="M599.14225,602.59027a5.42559,5.42559,0,0,0,.273-1.01353c.009-.09895-.30055-.22689-.464-.3412Z" transform="translate(-592.07864 -172.13084)" fill="#5c2838"/><polygon points="6.803 428.804 6.701 428.352 6.411 428.576 6.803 428.804" fill="#5c2838"/><path d="M1096.35018,838.29584c132.98769-80.43222,186.39565-259.17444,117.23134-402.64974C1157.43628,319.17766,1062.711,256.69432,933.07841,248.43035c.34774.43144.66956.86313.99138,1.29482A268.83087,268.83087,0,0,1,1045.76556,290.793c26.36893,16.95306,50.51549,36.69472,68.63379,62.83134l-.08162-.04788q1.03428,1.374,2.06851,2.7479,3.99609,4.12285,7.99,8.24324,1.499,1.32906,3.00247,2.663c29.9922,32.02786,54.00337,67.71059,67.23323,109.98145q.48,1.35339.96011,2.7068c4.33378,11.36237,7.71766,22.96934,9.04293,35.10639l-.04243-.017q1.17839,6.11559,2.35673,12.23118.17152,1.88358.34314,3.76721,1.23112,13.59327,2.46221,27.18657.05107,4.03512.10219,8.07022c.78781,19.14106-.30752,38.1114-5.14557,56.74248l.09222.01756A147.68926,147.68926,0,0,1,1193.868,663.687l-.68969,2.44122c-4.53622,14.07281-10.2059,27.6322-18.19141,40.14254l-1.81126,3.05381A255.23924,255.23924,0,0,1,1096.953,796.5653l.02049-.02393-14.9809,10.80718a.84579.84579,0,0,1-1.01265.69188,219.79819,219.79819,0,0,1-59.562,29.86725.57578.57578,0,0,1-.84.33971l-4.63871,1.44391-3.87538,1.28326-28.33156,7.77252a.81015.81015,0,0,1-1.08371.20452l-17.767,3.26029-2.67777.32627a247.17006,247.17006,0,0,1-90.99506-2.19677l-.43908.09684c-2.41978-.32852-4.85571-.5674-7.25684-.99946-23.75327-4.27408-45.72783-14.01565-68.2016-22.22261,17.1598,13.31064,37.4532,20.078,57.63132,26.67953,75.09836,24.5695,149.73683,21.85141,223.76867-4.96969q6.10788-2.8478,12.21117-5.695Q1092.634,840.76382,1096.35018,838.29584Z" transform="translate(-592.07864 -172.13084)" fill="#fb7406"/><path d="M895.06387,247.53691c-86.07986.19433-156.58059,34.05982-212.89676,98.524-2.93116,3.3552-5.53676,6.9947-8.2906,10.49461-.77772.35473-1.55875.71677-2.33979,1.07881l-.11123.14028q-.85881,1.21449-1.71768,2.42928-1.74771,4.87122-3.49466,9.74367c27.11227-30.14712,55.84419-58.4212,91.38726-78.78518a39.44255,39.44255,0,0,1,5.39883-2.13926q13.44495-6.75161,26.89032-13.50321a166.52063,166.52063,0,0,1,40.393-14.80824q1.84392-.09073,3.68782-.18152,3.5712-1.72219,7.14244-3.44431c6.83681-1.08464,13.69388-2.0566,20.50588-3.27947C872.78246,251.8023,883.917,249.63523,895.06387,247.53691Z" transform="translate(-592.07864 -172.13084)" fill="#2c3d67"/><path d="M1096.35018,838.29584q-3.71506,2.46777-7.42787,4.93517,3.618-1.35885,7.22529-2.7138C1096.211,839.77882,1096.2806,839.03733,1096.35018,838.29584Z" transform="translate(-592.07864 -172.13084)" fill="#fdc80e"/><path d="M671.53673,357.63437c.781-.362,1.56206-.72408,2.33979-1.07881-.26361-.74827-.52391-1.50385-.78935-2.25121Q672.3068,355.97751,671.53673,357.63437Z" transform="translate(-592.07864 -172.13084)" fill="#59a442"/><path d="M669.70781,360.20393q.85886-1.21469,1.71768-2.42928Q670.56665,358.98939,669.70781,360.20393Z" transform="translate(-592.07864 -172.13084)" fill="#59a442"/><path d="M934.43613,764.05272c-100.68758,11.488-181.27781-23.24614-238.46918-107.08414C642.01443,577.87849,643.495,471.2007,697.06268,391.936c.98939-1.464,1.76131-3.07492,2.63446-4.61687-12.377,4.69876-16.04359,17.04081-22.55992,26.58239-15.2663,22.35389-25.93254,47.16165-33.164,73.10292-4.80621,17.24134-8.78643,35.15046-9.72,52.93987-1.79963,34.29161-2.46673,68.84108,10.041,101.89179a8.47257,8.47257,0,0,1,.09846,2.65462q.05379,1.941.10651,3.883,1.60938,2.80314,3.21878,5.60627c11.25161,22.0596,25.943,41.75024,41.78408,60.64871q1.534,1.64866,3.06986,3.29692,17.19407,15.15939,34.38812,30.31883,1.61387,1.21182,3.22768,2.42367.28012.63352.5603,1.267l-.01329-.00947,11.31964,7.09927.172.10564,1.9822,2.15576q1.99677,1.27646,3.99351,2.55294l7.19685,4.30395q5.85195,3.27512,11.70385,6.55026l7.344,3.88282,11.62483,5.13419q2.0256.89814,4.0512,1.79631l5.31087,2.04812,13.33137,4.91831,4.04623,1.32062,1.27446.301,2.7362.99439,29.63727,7.04375,28.25292,3.804,6.73355.37662,5.39095.32536,21.55839-.02126,5.34453-.30148,4.04958-.20624,24.25405-2.73932,1.3-.15164,9.37136-1.63976,25.63776-6.46558,6.47507-2.12789,25.83065-9.87622q1.89956-.81384,3.79907-1.62768l9.548-4.65078q1.2907-.70385,2.58137-1.40768l5.6047-3.05463.38356-.40944.561.011q2.20848-1.29523,4.41691-2.59049,1.11837-.65809,2.23675-1.31615l11.53915-7.20676q2.77924-1.86089,5.55853-3.72173,1.03607-.75885,2.07217-1.51769l-.10622.00825q1.49581-1.07571,2.99166-2.1514,1.187-.803,2.37407-1.60612l1.59784-1.30389q1.95827-1.49089,3.91653-2.98182l1.4846-1.19559q3.24041-2.64024,6.48082-5.28054,14.9477-14.70744,29.89547-29.4149l4.18331-4.89414.23072-.39569q3.33258-4.15482,6.6652-8.30964.48834-.57924.97663-1.15852,1.05246-1.42634,2.10491-2.85264,1.59032-2.16457,3.18068-4.32915,1.20858-1.556,2.41712-3.112.75726-1.12077,1.51458-2.24148l-.05788.07624q4.61448-7.40239,9.229-14.80478,1.495-2.61914,2.99-5.23831,1.45213-2.65167,2.90434-5.30331-.07326-.73587-.1468-1.471c-3.34659-.59981-3.94385,2.37877-5.28506,4.20923q-72.22957,98.58259-194.417,100.78528Z" transform="translate(-592.07864 -172.13084)" fill="#2c3d67"/><path d="M768.79966,322.95518q2.48631-1.47012,4.97261-2.94034c.82773-10.67924,11.69085-9.81024,17.42187-14.86385,8.70158-7.673,3.20517-16.82723,4.20686-25.29928.61361-5.19-4.0955-2.40526-5.51177-4.33233q-13.445,6.752-26.89,13.50378c-1.14,6.34186-9.06,9.88-7.81516,16.79659.98,5.44481,5.513,10.13963,3.7854,16.31559C762.59263,318.25667,765.9378,317.70954,768.79966,322.95518Z" transform="translate(-592.07864 -172.13084)" fill="#2c250e"/><path d="M650.09571,666.18631q-2.05448-5.75742-4.10868-11.51449-.74367-3.14874-1.48781-6.29819-.053-1.94173-.10651-3.883c-2.468-4.66221-5.00991-9.28762-7.37486-14.00176-1.39127-2.77321-2.50154-5.68733-3.7382-8.53807.69514,3.395,1.13449,6.86706,2.13084,10.17123,3.78782,12.56143,7.50551,25.16744,14.38425,36.51774Q649.94545,667.41254,650.09571,666.18631Z" transform="translate(-592.07864 -172.13084)" fill="#d83910"/><path d="M625.93775,513.10705c.96723-4.46583-.24217-6.05629-2.2514-5.71449-3.31063.56314-6.14557,2.966-5.7089,6.32851.35306,2.71867,2.73281,5.17427,4.21353,7.74654C623.741,518.00893,625.291,514.55024,625.93775,513.10705Z" transform="translate(-592.07864 -172.13084)" fill="#2c250e"/><path d="M645.5594,671.96749c.36155-.1488.89165-.23235.989-.48353a.73938.73938,0,0,0-1.37547-.54292C645.06959,671.18522,645.399,671.61242,645.5594,671.96749Z" transform="translate(-592.07864 -172.13084)" fill="#2c250e"/><path d="M653.45816,675.52732q-.68183-1.68425-1.36306-3.3678Q652.7772,673.84408,653.45816,675.52732Z" transform="translate(-592.07864 -172.13084)" fill="#fdc80e"/><path d="M650.09571,666.18631q-.15038,1.2265-.301,2.4535c.39068.212.78159.42352,1.17349.63758Q650.533,667.73439,650.09571,666.18631Z" transform="translate(-592.07864 -172.13084)" fill="#fdc80e"/><path d="M690.677,740.30769q-5.54332-7.82019-11.08664-15.64044-4.33694.95462-8.67387,1.90918c1.39853,3.9756,4.91093,1.88609,7.44808,2.60031,3.92727,1.10557,1.18507,2.92558.37331,4.3698-2.81517,5.0085-6.67133,9.84732-1.86043,15.74134l-.02707-.02709C682.61689,748.06348,686.72639,744.30822,690.677,740.30769Z" transform="translate(-592.07864 -172.13084)" fill="#2c250e"/><path d="M677.04349,720.93885q-7.39962-12.8131-14.79946-25.62664c-2.54412,7.12777,4.61034,11.40211,5.18483,17.61289q.27038-.131.54048-.2624l-.50923.29377C667.34561,719.58828,672.52471,719.86735,677.04349,720.93885Z" transform="translate(-592.07864 -172.13084)" fill="#2c250e"/><path d="M669.43,757.14822q3.567,4.89537,7.13247,9.78944C675.58143,762.65593,678.62231,755.44781,669.43,757.14822Z" transform="translate(-592.07864 -172.13084)" fill="#2c250e"/><path d="M795.37235,827.28494c-2.72324-3.52186-6.50649-5.02521-10.75428-5.64529C787.47518,824.90607,790.77773,827.32566,795.37235,827.28494Z" transform="translate(-592.07864 -172.13084)" fill="#fb7406"/><path d="M655.413,738.62828q1.89874,2.65278,3.79643,5.30472C659.47843,741.066,658.91341,738.79727,655.413,738.62828Z" transform="translate(-592.07864 -172.13084)" fill="#463821"/><path d="M662.62814,748.41355q1.38715,1.99682,2.76933,3.99544C666.23779,749.857,665.2561,748.56626,662.62814,748.41355Z" transform="translate(-592.07864 -172.13084)" fill="#463821"/><path d="M629.65807,694.214q1.2002,2.2311,2.39887,4.46284C632.46961,696.53824,632.71119,694.49168,629.65807,694.214Z" transform="translate(-592.07864 -172.13084)" fill="#463821"/><path d="M674.167,751.96024q1.34177-1.34961,2.68344-2.69935l.027.027q-1.34994,1.34148-2.70009,2.68279Z" transform="translate(-592.07864 -172.13084)" fill="#463821"/><path d="M665.58968,752.65888q1.171,1.26581,2.3362,2.534C668.81386,752.81545,667.967,752.03439,665.58968,752.65888Z" transform="translate(-592.07864 -172.13084)" fill="#463821"/><path d="M784.77217,821.77944q-1.48587-.95585-2.97185-1.91171Q783.28609,820.82353,784.77217,821.77944Z" transform="translate(-592.07864 -172.13084)" fill="#fb7406"/><path d="M651.97861,733.53874q.86426,1.20347,1.72682,2.407Q652.84029,734.74233,651.97861,733.53874Z" transform="translate(-592.07864 -172.13084)" fill="#463821"/><path d="M653.76836,736.048q.7311,1.14791,1.46105,2.29394Q654.49774,737.19306,653.76836,736.048Z" transform="translate(-592.07864 -172.13084)" fill="#463821"/><path d="M701.0632,794.89693q1.04125.8572,2.08183,1.71509Q702.10345,795.75516,701.0632,794.89693Z" transform="translate(-592.07864 -172.13084)" fill="#d83910"/><path d="M706.56882,800.24657q1.10884.84855,2.21756,1.69772Q707.67748,801.09609,706.56882,800.24657Z" transform="translate(-592.07864 -172.13084)" fill="#d83910"/><path d="M674.17736,751.97067l-.47107.25919q.2304-.13474.46075-.26958Z" transform="translate(-592.07864 -172.13084)" fill="#463821"/><path d="M668.24417,755.44786c.28761.35608.57523.71215.85458,1.071C668.80838,756.16366,668.52627,755.80575,668.24417,755.44786Z" transform="translate(-592.07864 -172.13084)" fill="#463821"/><path d="M705.22381,798.95261q.6974.68,1.39535,1.35978Q705.922,799.63237,705.22381,798.95261Z" transform="translate(-592.07864 -172.13084)" fill="#d83910"/><path d="M832.98717,294.44571q1.31754-.3099,2.63489-.61981c.62312-1.35338,1.14816-3.8282,1.8843-3.89267a108.48073,108.48073,0,0,0,33.70712-8.86379c.45065-.19453,1.28764.50549,1.94465.78876l-2.49,2.02342c67.49514-8.9793,131.69177.71377,191.90993,33.54551,18.64257,10.16415,34.62844,24.01871,51.82125,36.19716-18.1183-26.13662-42.26486-45.87828-68.63379-62.83134a268.77734,268.77734,0,0,0-111.681-41.06343q-3.85276-.6909-7.73531-1.39067-15.644-.401-31.28666-.80194c-11.14564,2.09832-22.28018,4.26539-33.444,6.2695-6.812,1.22287-13.66907,2.19483-20.50582,3.27693-1.27559,3.4349-4.04195,3.78672-7.1425,3.44685q-1.84392.09079-3.68774.18226c-.37318,5.49306-8.41054,11.28036,1.02641,16.71922,1.10062.63435,2.69207,8.88-2.82025,10.52241-6.21466,1.85159-5.50732,4.58225-2.65541,8.59529q.90218-.314,1.80428-.62794.76275-2.57806,1.52569-5.15616Q831.07526,292.60549,832.98717,294.44571Z" transform="translate(-592.07864 -172.13084)" fill="#2c250e"/><path d="M926.3493,248.33893q3.87507.69744,7.73536,1.39059c-.33669-.436-.65851-.86773-1.00625-1.29917C930.81812,248.4,928.58371,248.36949,926.3493,248.33893Z" transform="translate(-592.07864 -172.13084)" fill="#2c3d67"/><path d="M1114.39935,353.62429c-17.19281-12.17845-33.17868-26.033-51.82125-36.19716-60.21816-32.83174-124.41479-42.52481-191.90966-33.547q-.047,1.82968-.09439,3.66241a300.812,300.812,0,0,1,61.2062,1.72787q5.12283,1.13176,10.26054,2.26677c6.33032-.25214,12.74415-1.29605,18.97786-.63694,66.24009,7.00373,121.68621,34.48248,164.91787,86.056,5.43868,6.48814,8.04161,15.78628,16.83591,19.40746q-8.54419-14.46-17.08839-28.91984-.65279-1.43694-1.3056-2.87382-3.99607-4.12286-7.99277-8.24619-1.03452-1.37423-2.06794-2.74741Z" transform="translate(-592.07864 -172.13084)" fill="#2c3d67"/><path d="M1125.684,367.44383q.84987-.10423,1.6972-.21092-1.50622-1.33628-3.005-2.66536Q1125.0324,366.00811,1125.684,367.44383Z" transform="translate(-592.07864 -172.13084)" fill="#fdc80e"/><path d="M1114.31773,353.57641q1.03373,1.37347,2.06794,2.74737Q1115.35232,354.95061,1114.31773,353.57641Z" transform="translate(-592.07864 -172.13084)" fill="#2c250e"/><path d="M825.83337,296.54937c-2.85191-4.013-3.55925-6.7437,2.65541-8.59529,5.51232-1.64241,3.92087-9.88806,2.82025-10.52241-9.437-5.43886-1.39959-11.22616-1.02641-16.71922A166.48719,166.48719,0,0,0,789.88956,275.52c1.41594,1.9265,6.125-.8582,5.51144,4.33176-1.00169,8.472,4.49472,17.62625-4.20686,25.29928-5.731,5.05361-16.59414,4.18461-17.42187,14.86385q4.94215-3.03142,9.88191-6.06483-.2235-.51984-.44221-1.03557l.60191.8918Q804.82362,305.17782,825.83337,296.54937Z" transform="translate(-592.07864 -172.13084)" fill="#2c250e"/><path d="M833.97036,260.53019c3.10055.33987,5.86691-.012,7.1425-3.44685Q837.54154,258.80929,833.97036,260.53019Z" transform="translate(-592.07864 -172.13084)" fill="#2c250e"/><path d="M942.04062,291.53617q-5.13385-1.13343-10.26037-2.26575c-18.93391,3.86409-38.38579,6.10064-56.73218,11.8585C769.01491,334.40643,704.52579,429.34136,709.51188,543.37014a2.22532,2.22532,0,0,0,.96992-.16066c.0928-14.80208,1.44067-29.371,8.0382-42.95814l-.06959-.00349.07173-2.65227,1.36319-4.02589.00038-.02468c16.54366-49.5149,47.72554-86.49614,94.40266-110.21l-.11314.05171q1.25515-.70372,2.51029-1.40747l3.76676-2.58557c51.86015-52.73105,155.76485-60.37965,224.59135-17.05893,33.1434,20.86109,57.07805,49.55023,75.01016,83.81226-.57562-2.94819-.63789-6.118-1.80153-8.81224C1084.32894,358.79034,1025.36052,310.43724,942.04062,291.53617Z" transform="translate(-592.07864 -172.13084)" fill="#59a442"/><path d="M885.13244,753.817q1.46076.37045,2.9229.74117c5.29026-.26634,10.57778-.73388,15.8681-.76866,55.29093-.36377,102.51578-19.76536,141.12336-59.58721q-1.39928-.58329-2.78987-1.167c-54.86294,29.94488-111.66529,34.34509-169.741,11.11507-17.44217-6.97676-35.20759-14.76763-47.60544-30.28811l.06206.05328c-3.17448.43017-5.07917-.82251-5.44876-4.10968l.08889.06909-2.96632-2.57956.09925.09548q-.85581-.66031-1.71159-1.32067l-.41444-.28309q-.89954-.80971-1.799-1.61949c-13.96763-13.32314-25.9452-28.15687-34.57533-45.53152q-.98973-1.92587-1.97942-3.85172l.05011.11143c-2.65966-.7178-2.81276-2.48851-1.96632-4.67911l.12957-.05439c-5.8908-4.20316-6.18792-11.57523-9.70457-17.12338-2.49394-1.29-3.14882-3.38317-2.61861-5.99383q-1.37467-5.14626-2.75127-10.29174c-.46632,13.51125-1.03627,27.01973-1.28093,40.53411-.03653,2.0184,2.19227,4.72336-1.44081,5.0685-9.8998.9405-6.96209,12.25247-6.29617,13.33464,4.41171,7.16952-1.03828,12.42978-1.89325,18.40954l.77372,1.08341,1.34606,1.83586a.60231.60231,0,0,0,.15357.76913q.66442.741,1.32889,1.482l-.06157.03969c1.62279.12242,3.61488.01331,1.53947,2.45441,11.38766,18.501,26.79611,33.35638,43.18564,47.26518,20.47115,17.37265,44.37358,28.96771,68.5119,40.12317q7.85226,1.848,15.70355,3.69558Q883.05262,753.33239,885.13244,753.817ZM763.2857,611.43137a24.0428,24.0428,0,0,1-.203-3.40368c.04339-.40471.52055-.76293.80169-1.14215a16.28038,16.28038,0,0,1,.36186,2.39461C764.252,609.69747,763.8927,610.11985,763.2857,611.43137Z" transform="translate(-592.07864 -172.13084)" fill="#2c250e"/><path d="M1045.05107,694.20206c-38.61185,39.82208-85.8367,59.22367-141.12763,59.58744-5.29032.03478-10.57784.50232-15.8681.76868,12.60637,4.92608,26.00315,5.49667,39.20466,7.20253,2.44685.31614,4.78075,1.50614,7.17145,2.29242q4.83085-.70116,9.656-1.40244a16.15953,16.15953,0,0,1,3.00632-1.36627c64.89872-14.79576,115.9037-49.82026,151.93915-105.76051,11.429-17.742,22.16537-36.23474,25.32005-57.8103-1.09451,2.19091-2.24106,4.35752-3.27561,6.57638-15.035,32.24732-35.51294,59.97933-65.905,79.49305q-1.897,1.892-3.79713,3.79117-1.36674.69007-2.73343,1.38016l-.04641.123Q1046.82317,691.63973,1045.05107,694.20206Z" transform="translate(-592.07864 -172.13084)" fill="#59a442"/><path d="M749.26729,655.18351c-.2579-.36114-.51581-.72228-.76817-1.084a142.58033,142.58033,0,0,1-21.89463-41.945c-9.77943-21.9525-14.82875-45.01068-16.12272-68.94664a2.20207,2.20207,0,0,1-.96989.16234A197.50207,197.50207,0,0,0,859.35512,748.2334c1.93067.47579,3.94295.62055,5.91664.91963-24.13883-11.15554-48.04126-22.7506-68.51241-40.12325-16.38953-13.9088-31.798-28.76421-43.18539-47.26471q-.76963-1.227-1.53972-2.45488l.06227-.04051q-.66412-.74141-1.32959-1.48118a.60539.60539,0,0,1-.15337-.77221Q749.94066,656.09684,749.26729,655.18351Z" transform="translate(-592.07864 -172.13084)" fill="#d83910"/><path d="M870.57405,287.54255q.04732-1.832.09439-3.66241,1.24459-1.00948,2.48969-2.02194c-.657-.28327-1.494-.98329-1.94465-.78876a108.48073,108.48073,0,0,1-33.70712,8.86379c-.73614.06447-1.26118,2.53929-1.8843,3.89267q12.13284-2.49534,24.26574-4.9907.70817-.0568,1.41567-.11343Q865.93877,288.13215,870.57405,287.54255Z" transform="translate(-592.07864 -172.13084)" fill="#2c250e"/><path d="M832.98717,294.44571q-1.91193-1.84022-3.82383-3.68044-.7629,2.57813-1.52569,5.15616Q830.3125,295.18359,832.98717,294.44571Z" transform="translate(-592.07864 -172.13084)" fill="#2c250e"/><path d="M885.13244,753.817q-2.0793-.48447-4.15764-.96848Q883.0546,753.33317,885.13244,753.817Z" transform="translate(-592.07864 -172.13084)" fill="#59a442"/><path d="M861.30347,288.72177q-.70767.05667-1.41567.11343Z" transform="translate(-592.07864 -172.13084)" fill="#2c3d67"/><path d="M1124.35293,597.71361c-3.15468,21.57556-13.891,40.06825-25.32005,57.8103-36.03545,55.94025-87.04043,90.96475-151.93915,105.76051a16.15953,16.15953,0,0,0-3.00632,1.36627q122.12612-2.33336,194.41335-100.78433c1.34121-1.83046,1.93847-4.809,5.2851-4.20923q.71974-.63962,1.43872-1.27722,1.86561-3.75729,3.73145-7.51531l-.05027-.34344.30531-.16517q.45993-.9132.91994-1.82646l-.00448.38348-.02526-.38643.96949-2.46632q2.96124-6.66909,5.92245-13.33816,2.24433-5.40732,4.48874-10.81459.21633-.66753.43276-1.335.87163-2.00226,1.74308-4.00457.69708-2.02317,1.3942-4.04624,3.29531-9.868,6.59081-19.7363.4656-2.17434.93108-4.34839,3.049-16.19589,6.09825-32.39241.19661-2.64065.39321-5.281.50565-14.14052,1.01125-28.28151-.08107-2.6109-.16212-5.22174c-3.65514-42.35509-16.67354-81.78646-37.14085-118.89447-8.79549-3.62332-11.39842-12.92146-16.8371-19.4096-43.23166-51.57348-98.67778-79.05223-164.91787-86.056-6.23371-.65911-12.64754.3848-18.97786.63694,83.31973,18.9,142.28815,67.25315,176.21147,145.7976,1.16364,2.69427,1.22591,5.86405,1.80062,8.80982a1.01769,1.01769,0,0,0,.38857.88937q.52881.03032,1.05759.06053-.28971.44543-.57932.89089.51907,1.32112,1.03812,2.64221l.75819,1.92276C1140.80139,500.7404,1141.64366,549.12483,1124.35293,597.71361Z" transform="translate(-592.07864 -172.13084)" fill="#2c250e"/><path d="M644.49921,648.37363q.744,3.14928,1.48782,6.29819c.58072-.22545,1.16168-.45058,1.7368-.68379Q646.10567,651.17273,644.49921,648.37363Z" transform="translate(-592.07864 -172.13084)" fill="#fdc80e"/><path d="M726.96005,748.24436q.74459,1.06962,1.48881,2.13883a1.12546,1.12546,0,0,1,1.00857.63041,5.61967,5.61967,0,0,0,.7303-.34557Q728.57391,749.45618,726.96005,748.24436Z" transform="translate(-592.07864 -172.13084)" fill="#59a442"/><polygon points="149.976 586.894 149.947 587.177 150.151 587.002 149.976 586.894" fill="#59a442"/><path d="M667.46011,712.95647l.50923-.29377q-.27018.13131-.54048.2624Z" transform="translate(-592.07864 -172.13084)" fill="#2c250e"/><path d="M783.81388,313.80624l-.60191-.8918q.2199.51677.44223,1.03557Z" transform="translate(-592.07864 -172.13084)" fill="#2c250e"/><path d="M924.44968,362.87315c-32.70445-4.16876-64.15713.769-94.61682,12.97653-3.10669,1.24509-6.26011,2.37363-9.38623,3.5501q-1.87491,1.28367-3.75992,2.57871-1.25451.70335-2.51148,1.40825l.11249-.05183c-9.08252,10.88913-18.81651,21.30624-27.11463,32.763-19.06241,26.31826-29.02616,56.32279-33.59924,88.27009q-.18535,4.72429-.37073,9.44856l-.77175,1.74294.07036,2.2287c.54333,19.86059,2.3349,39.57507,6.90491,58.96434q1.37467,5.14626,2.74639,10.29535,1.30776,2.99829,2.62158,5.991c3.51665,5.54815,3.81377,12.92022,9.70395,17.12188-4.38037-13.41738-8.522-26.92415-9.37643-41.10417-2.3581-39.13253,6.949-74.48274,34.32222-103.8257l-.0811.20115.981-1.086,3.35369-5.427a65.50561,65.50561,0,0,1,18.36544-32.751l.01613-.01335q2.78028-3.83426,5.56058-7.66855C852.96165,387.87864,885.71779,370.17572,924.44968,362.87315Z" transform="translate(-592.07864 -172.13084)" fill="#d83910"/><path d="M753.57385,504.368c4.57308-31.9473,14.53683-61.95183,33.59924-88.27009,8.29812-11.45671,18.03211-21.87382,27.11463-32.763-46.67647,23.714-77.85835,60.6952-94.40183,110.21047,2.6582.42446,3.26615,2.48977,2.45548,4.36395-.48838,1.12912-2.54118,1.58183-3.891,2.33852l.06955.00341c4.98508,10.0177,15.18111,3.98864,22.40269,7.23292C745.73733,509.64714,747.54855,498.24558,753.57385,504.368Z" transform="translate(-592.07864 -172.13084)" fill="#2c250e"/><path d="M753.57385,504.368c-6.0253-6.12237-7.83652,5.27919-12.65121,3.11623-7.22158-3.24428-17.41761,2.78478-22.40269-7.23292-6.59748,13.58718-7.94535,28.15614-8.03815,42.95822,1.29394,23.93428,6.34326,46.99246,16.1223,68.94389q1.851.5075,3.70285,1.01719c-.82642-9.99271,8.32371-21.768-2.14555-29.64978-9.19795-6.92467-2.59012-13.64763-2.69931-20.39367-.03375-2.08633,6.54263-1.8559,2.56713-6.99017-3.66495-4.73313-1.95644-10.83977,1.8447-12.04145.56317-.178,1.45811-1.10275,1.389-1.22554-2.76027-4.90019,10.65134-8.38516,1.22186-13.7912,3.30946-5.38042,10.698-8.7405,8.37805-16.90908a15.38443,15.38443,0,0,1,3.25031.89122c2.84234,1.48767,5.59862,3.13964,8.38863,4.72726q-.03519-1.11433-.07094-2.23121.38561-.87275.77235-1.74043Q753.38847,509.09222,753.57385,504.368Z" transform="translate(-592.07864 -172.13084)" fill="#2c250e"/><path d="M718.4504,500.24785c1.34979-.75669,3.40259-1.2094,3.891-2.33852.81067-1.87418.20272-3.93949-2.45548-4.36395l-.00027.02436q-.68146,2.013-1.36348,4.02584Q718.48628,498.9217,718.4504,500.24785Z" transform="translate(-592.07864 -172.13084)" fill="#2c250e"/><path d="M718.52214,497.59558q.68188-2.01288,1.36348-4.02584Q719.20359,495.58262,718.52214,497.59558Z" transform="translate(-592.07864 -172.13084)" fill="#463821"/><path d="M814.17523,383.38674q1.25635-.70452,2.51148-1.40825Q815.42977,382.68337,814.17523,383.38674Z" transform="translate(-592.07864 -172.13084)" fill="#463821"/><path d="M968.00218,683.0799c-46.36088,22.36877-91.6785,19.92868-136.04119-5.68178-2.273-1.31223-4.69693-2.36328-7.05054-3.53591,12.39787,15.52048,30.16329,23.31135,47.60546,30.28811,58.07573,23.23,114.87808,18.82981,169.738-11.11583q3.16765-1.97928,6.34142-3.95709l.04641-.12375q1.36668-.69041,2.73343-1.37946,1.89936-1.89738,3.79713-3.79115c18.99963-24.94685,34.08864-51.76594,39.7108-83.103-1.61558,1.75993-3.57352,3.307-4.79286,5.30471-16.65728,27.29157-39.5136,47.84384-68.43006,61.16731-14.5327,6.69606-29.26719,14.09374-46.2476,12.06178Q971.70834,681.14646,968.00218,683.0799Z" transform="translate(-592.07864 -172.13084)" fill="#d83910"/><path d="M752.50173,517.78815c-2.79-1.58762-5.54629-3.23959-8.38863-4.72726a15.38443,15.38443,0,0,0-3.25031-.89122c2.32,8.16858-5.06859,11.52866-8.37805,16.90908,9.42948,5.406-3.98213,8.891-1.22186,13.7912.06915.12279-.82579,1.04752-1.389,1.22554-3.80114,1.20168-5.50965,7.30832-1.8447,12.04145,3.9755,5.13427-2.60088,4.90384-2.56713,6.99017.10919,6.746-6.49864,13.469,2.69931,20.39367,10.46926,7.88181,1.31913,19.65707,2.14555,29.64978q-1.85162-.50914-3.70285-1.01719a142.58352,142.58352,0,0,0,21.895,41.94611c.84944-5.97914,6.29943-11.2394,1.88772-18.40892-.66592-1.08217-3.60363-12.39414,6.29617-13.33464,3.63308-.34514,1.40428-3.0501,1.44081-5.0685.24466-13.51438.81461-27.02286,1.28093-40.53411C754.83663,557.36322,753.04506,537.64874,752.50173,517.78815Z" transform="translate(-592.07864 -172.13084)" fill="#2c250e"/><path d="M1048.59531,689.0774q-3.17222,1.97819-6.34142,3.95709c.93157.38984,1.86006.77894,2.79291,1.1678Q1046.82535,691.63963,1048.59531,689.0774Z" transform="translate(-592.07864 -172.13084)" fill="#463821"/><path d="M824.97253,673.91551q-2.72435-2.05482-5.44872-4.10966C819.89336,673.093,821.79805,674.34566,824.97253,673.91551Z" transform="translate(-592.07864 -172.13084)" fill="#2c250e"/><path d="M764.77461,593.03888q-1.31231-2.9941-2.62158-5.991C761.62579,589.65571,762.28067,591.74886,764.77461,593.03888Z" transform="translate(-592.07864 -172.13084)" fill="#2c250e"/><path d="M776.31593,614.89576q-.98373-2.33862-1.9669-4.67817C773.50317,612.40725,773.65627,614.178,776.31593,614.89576Z" transform="translate(-592.07864 -172.13084)" fill="#2c250e"/><path d="M763.2857,611.43137c.607-1.31152.96634-1.7339.96054-2.15122a16.28038,16.28038,0,0,0-.36186-2.39461c-.28114.37922-.7583.73744-.80169,1.14215A24.0428,24.0428,0,0,0,763.2857,611.43137Z" transform="translate(-592.07864 -172.13084)" fill="#2c250e"/><path d="M752.03424,659.31019q.77,1.22769,1.53972,2.45488C755.64912,659.3235,753.657,659.43261,752.03424,659.31019Z" transform="translate(-592.07864 -172.13084)" fill="#463821"/><path d="M819.61266,669.8749q-1.48245-1.28905-2.96562-2.57884Q818.12916,668.58475,819.61266,669.8749Z" transform="translate(-592.07864 -172.13084)" fill="#d83910"/><path d="M778.24524,618.63605q-.98926-1.92492-1.979-3.85078Q777.2553,616.7097,778.24524,618.63605Z" transform="translate(-592.07864 -172.13084)" fill="#d83910"/><path d="M816.74559,667.39082q-.85242-.65833-1.70822-1.31868Q815.8881,666.7295,816.74559,667.39082Z" transform="translate(-592.07864 -172.13084)" fill="#d83910"/><path d="M814.61956,665.78706q-.89836-.80867-1.79788-1.61838Q813.71949,664.97678,814.61956,665.78706Z" transform="translate(-592.07864 -172.13084)" fill="#d83910"/><path d="M750.76692,657.7885q.66513.74019,1.32959,1.48118Q751.431,658.52991,750.76692,657.7885Z" transform="translate(-592.07864 -172.13084)" fill="#463821"/><path d="M749.26729,655.18351q.67325.91484,1.34628,1.83278Q749.94019,656.103,749.26729,655.18351Z" transform="translate(-592.07864 -172.13084)" fill="#463821"/><path d="M1051.37515,687.57419q-1.36674.6894-2.73343,1.37946Q1050.00846,688.26466,1051.37515,687.57419Z" transform="translate(-592.07864 -172.13084)" fill="#463821"/><path d="M1121.95784,450.62761q.37885.96009.75791,1.92149Q1122.33707,451.58962,1121.95784,450.62761Z" transform="translate(-592.07864 -172.13084)" fill="#59a442"/><path d="M1120.44145,447.034l-.07373.63029.551.319q.29111-.44223.5803-.88872Q1120.97022,447.06427,1120.44145,447.034Z" transform="translate(-592.07864 -172.13084)" fill="#59a442"/><path d="M975.41161,679.21425c16.98136,2.03155,31.71585-5.36613,46.24855-12.06219,28.91646-13.32347,51.77278-33.87574,68.43006-61.16731,1.21934-1.99769,3.17728-3.54478,4.79286-5.30471q1.75125-6.6894,3.50058-13.3743c1.73687-22.89543,2.97285-45.76893-2.6903-68.371a1.31821,1.31821,0,0,1-.24813-1.09889q-1.32423-5.40251-2.64837-10.805-.588-2.12178-1.176-4.24362-.80256-2.5908-1.60519-5.18162l-1.26366-4.03845.00411.011-1.2103-2.99849a1.04788,1.04788,0,0,0-.34753-1.04017q-.497-1.41359-.994-2.82721-.50022-1.29771-1.00049-2.59543-.29093-.58543-.58182-1.17092l-.03306-.08012q-.44539-1.02057-.89083-2.04116-4.33722-9.05953-8.67444-18.11905-.52167-.757-1.04325-1.51415l.04818.06521q-.57885-.92589-1.15773-1.85176a.76789.76789,0,0,0-.45125-.81475q-.5049-.86967-1.00985-1.73932c-8.18118-14.83075-18.94657-27.665-30.891-39.53573-29.53516-29.353-65.65859-45.92271-105.97618-54.2675q-5.04471-.087-10.09119-.1742c-38.73362,7.3024-71.48976,25.00532-96.83087,55.61168-.61772,3.45125-1.82344,6.478-5.561,7.66974l-.01479.014c5.84392,5.35528-5.64368,11.05918.33217,16.41118,19.71178-12.98154,40.71829-22.554,64.61043-24.5283q5.18109-.47487,10.36218-.9497c25.85789-1.7302,49.91913,4.73987,72.93659,15.97383,7.97683-4.52176,8.31237,3.92056,11.82745,6.96854l.09085.05962c2.17182-.32828,4.13736-.376,3.76029,2.76311l.1756.14348c4.36437-2.75871,3.98258.741,4.32839,3.2812q.97938.82135,1.95872,1.64277a.59132.59132,0,0,1,.56909.42812q4.80066,5.1393,9.60133,10.27855l-.071-.05219q1.43273,1.67273,2.86544,3.3455c8.07508,6.64222,13.74526,15.165,18.86569,24.11756q1.2936,2.45018,2.58728,4.9004l-.04863-.1016,1.38368,2.795-.06424-.0646c15.9703,26.83212,19.24111,55.84215,14.785,86.17731q-.83884,4.66806-1.6776,9.33613-.72389,2.77745-1.4478,5.55482-.39739,1.29027-.79462,2.58057l-.017.04722q-.64,2.03843-1.28,4.07686C1026.93885,635.31206,1005.67909,660.8639,975.41161,679.21425ZM983.12705,436.657c-.3486-.52056-.6903-1.03089-1.032-1.54118.38857-.16915.928-.58478,1.1353-.45789a5.87681,5.87681,0,0,1,1.18184,1.29914C984.04478,436.15721,983.67741,436.35729,983.12705,436.657Z" transform="translate(-592.07864 -172.13084)" fill="#2c250e"/><path d="M934.5426,363.04752c40.31759,8.34479,76.441,24.91445,105.97618,54.2675,11.94447,11.87078,22.70986,24.705,30.89095,39.53622q.50491.87,1.01,1.73883a.76724.76724,0,0,1,.45071.81525q.57866.92609,1.15822,1.85126l-.04823-.065q.52161.75718,1.0433,1.51395,4.33722,9.05955,8.67391,18.1202.44514,1.0212.89136,2.04l.0331.08008q.291.58537.58178,1.171.50022,1.29773,1,2.59453.49665,1.41315.99446,2.82811a1.0478,1.0478,0,0,1,.34736,1.04054q.6051,1.49945,1.21047,2.99812l-.00419-.011q.63183,2.01923,1.26374,4.03849.80262,2.59081,1.60457,5.18113.58765,2.12154,1.17658,4.24411,1.32417,5.40252,2.64837,10.805c.13172.08649.37271.17051.3748.26011a4.39768,4.39768,0,0,1-.12667.83882c5.66315,22.60209,4.42717,45.47559,2.69025,68.371,14.27783-25.15941,16.86606-52.65755,14.10162-80.52532-8.6238-86.93547-85.15958-151.03149-172.18452-144.96965A40.32826,40.32826,0,0,0,934.5426,363.04752Z" transform="translate(-592.07864 -172.13084)" fill="#fdc80e"/><path d="M1042.901,579.75846c4.4561-30.33516,1.18529-59.34519-14.78506-86.17764.60359,3.26732.98953,6.59307,1.84376,9.7939,11.30584,42.36247-16.31882,86.64665-60.26009,96.50931-44.30659,9.94462-88.91022-19.41287-97.05756-63.88192-8.05718-43.97692,22.36963-86.25135,65.78716-92.84655,23.86474-3.625,44.40249,3.62176,64.16858,15.48555q-4.80067-5.1393-9.59965-10.27638l-.4763.04949-.09447-.47978q-.97932-.82143-1.95835-1.64249-2.164-1.64038-4.32876-3.28152l-.17424-.14394q-1.87953-1.38179-3.76169-2.76256l-.08958-.05988q-5.91308-3.48437-11.82868-6.96837c-23.01746-11.23392-47.0787-17.704-72.93384-15.97391q-5.17969.47474-10.36493.94982c-23.89214,1.97434-44.89865,11.54676-64.61039,24.52818q-9.34947,8.16949-18.699,16.33928-1.67685,2.71351-3.35344,5.42485-.49038.54195-.98125,1.08814l.0811-.20115c-12.59273,40.0132-12.894,79.56864,3.53142,118.81316,25.38586,60.65329,88.48722,101.00939,154.45839,98.43867,3.51495-.137,7.05553.38516,10.58613.59882q3.70848-1.93569,7.41227-3.8677c30.26653-18.34994,51.52629-43.90178,62.27122-77.85941q.63984-2.03825,1.28021-4.07723l.01676-.04685q.39728-1.29008.79487-2.58094.72395-2.77738,1.4478-5.55429Q1042.06227,584.4273,1042.901,579.75846Z" transform="translate(-592.07864 -172.13084)" fill="#fdc80e"/><path d="M803.67794,458.91905q9.3495-8.16968,18.699-16.33928c-5.97589-5.35188,5.51171-11.05578-.33221-16.41106A65.4934,65.4934,0,0,0,803.67794,458.91905Z" transform="translate(-592.07864 -172.13084)" fill="#2c250e"/><path d="M822.05951,426.15474c3.73759-1.19178,4.94331-4.21849,5.561-7.66974Q824.83957,422.321,822.05951,426.15474Z" transform="translate(-592.07864 -172.13084)" fill="#2c250e"/><path d="M753.20314,513.81651q-.38646.86892-.77235,1.74043Q752.81754,514.68925,753.20314,513.81651Z" transform="translate(-592.07864 -172.13084)" fill="#463821"/><path d="M970.28609,433.07568q5.915,3.48413,11.82868,6.96837C978.59846,436.99628,978.26292,428.554,970.28609,433.07568Z" transform="translate(-592.07864 -172.13084)" fill="#2c250e"/><path d="M1042.901,579.75846q-.83877,4.66861-1.6776,9.33666Q1042.06221,584.42625,1042.901,579.75846Z" transform="translate(-592.07864 -172.13084)" fill="#fb7406"/><path d="M986.14028,443.01043q2.16461,1.641,4.32876,3.28152C990.12286,443.75143,990.50465,440.25176,986.14028,443.01043Z" transform="translate(-592.07864 -172.13084)" fill="#2c250e"/><path d="M886.98732,418.05159q5.18384-.475,10.36493-.94986Q892.167,417.57678,886.98732,418.05159Z" transform="translate(-592.07864 -172.13084)" fill="#fb7406"/><path d="M982.20435,440.10393q1.88151,1.38105,3.76169,2.76256C986.34175,439.72792,984.37621,439.7756,982.20435,440.10393Z" transform="translate(-592.07864 -172.13084)" fill="#2c250e"/><path d="M983.12705,436.657c.55036-.29974.91773-.49982,1.2851-.69993a5.87681,5.87681,0,0,0-1.18184-1.29914c-.2073-.12689-.74673.28874-1.1353.45789C982.43675,435.62614,982.77845,436.13647,983.12705,436.657Z" transform="translate(-592.07864 -172.13084)" fill="#2c250e"/><path d="M1024.25792,486.052q1.29354,2.45018,2.58728,4.90036Q1025.55154,488.50215,1024.25792,486.052Z" transform="translate(-592.07864 -172.13084)" fill="#fdc80e"/><path d="M1002.52679,458.58892q1.43259,1.67273,2.86536,3.3455Q1003.95955,460.26164,1002.52679,458.58892Z" transform="translate(-592.07864 -172.13084)" fill="#fdc80e"/><path d="M1092.79686,507.0308q-.58857-2.12228-1.17658-4.24411Q1092.20917,504.90922,1092.79686,507.0308Z" transform="translate(-592.07864 -172.13084)" fill="#463821"/><path d="M1038.964,597.2772q-.6402,2.03881-1.28021,4.07723Q1038.32405,599.31542,1038.964,597.2772Z" transform="translate(-592.07864 -172.13084)" fill="#fb7406"/><path d="M1090.01571,497.60556q-.63189-2.01929-1.26374-4.03849Q1089.38392,495.58636,1090.01571,497.60556Z" transform="translate(-592.07864 -172.13084)" fill="#463821"/><path d="M1087.19833,489.53941q-.49752-1.4145-.9945-2.82811Q1086.70159,488.12623,1087.19833,489.53941Z" transform="translate(-592.07864 -172.13084)" fill="#463821"/><path d="M1026.79657,490.85078q.69191,1.39745,1.38372,2.795Q1027.48839,492.24825,1026.79657,490.85078Z" transform="translate(-592.07864 -172.13084)" fill="#fdc80e"/><path d="M1088.75616,493.57807q-.60534-1.49889-1.21047-2.99812Q1088.15109,492.07866,1088.75616,493.57807Z" transform="translate(-592.07864 -172.13084)" fill="#463821"/><path d="M1039.77562,594.64941q-.39751,1.29069-.79487,2.58094Q1039.37839,595.93947,1039.77562,594.64941Z" transform="translate(-592.07864 -172.13084)" fill="#fb7406"/><path d="M1085.20387,484.11677q-.29086-.58555-.58178-1.171Q1084.9129,483.53132,1085.20387,484.11677Z" transform="translate(-592.07864 -172.13084)" fill="#463821"/><path d="M1084.589,482.86573q-.446-1.0194-.89136-2.04Q1084.14382,481.84458,1084.589,482.86573Z" transform="translate(-592.07864 -172.13084)" fill="#463821"/><path d="M1075.02372,462.70552q-.52167-.75687-1.0433-1.51395Q1074.50209,461.94838,1075.02372,462.70552Z" transform="translate(-592.07864 -172.13084)" fill="#463821"/><path d="M1074.02865,461.25658q-.57935-.92541-1.15822-1.85126Q1073.45008,460.33048,1074.02865,461.25658Z" transform="translate(-592.07864 -172.13084)" fill="#463821"/><path d="M1072.41967,458.59007q-.505-.86917-1.00994-1.73883Q1071.91477,457.72016,1072.41967,458.59007Z" transform="translate(-592.07864 -172.13084)" fill="#463821"/><path d="M992.42739,447.93444l.09447.47978.4763-.04949A.5942.5942,0,0,0,992.42739,447.93444Z" transform="translate(-592.07864 -172.13084)" fill="#463821"/><path d="M1095.69336,518.93472a4.39768,4.39768,0,0,0,.12667-.83882c-.00209-.0896-.24308-.17362-.3748-.26011A1.31827,1.31827,0,0,0,1095.69336,518.93472Z" transform="translate(-592.07864 -172.13084)" fill="#463821"/></svg>
