<svg version="1" xmlns="http://www.w3.org/2000/svg" width="666.667" height="666.667" viewBox="0 0 500.000000 500.000000"><path d="M96.6 1.6c-16.4 3-31.7 9.2-45.5 18.5C30.4 34 14.5 54.7 6.4 78.2.2 96.3.6 84.4.3 247.5c-.2 155.8-.3 152.7 3.8 167 8.7 30.3 27.4 54.4 54.9 70.5 6.5 3.9 20 9.4 25.1 10.4 3.1.5 3.7.3 4.2-1.3.2-1.1 0-2.4-.6-3-.6-.6-.7-1.1-.1-1.1.5 0 .9-2.4 1-5.3.1-6.7 1.3-17.8 2.1-19 .3-.5.7-2.6.8-4.6.2-2 .8-4.8 1.4-6.3.9-2.3.7-2.9-.7-3.6-.9-.5-2.9-.9-4.4-.8-1.6.1-2.8-.2-2.8-.6 0-.4-.9-.8-2.1-.8-1.1 0-3-.5-4.2-1.2-1.2-.6-3.3-1.2-4.7-1.2-1.4-.1-3.3-.6-4.4-1.2-1.7-1-1.8-1.5-.5-6.3.7-2.8 1.7-5.1 2.3-5.1.5 0 .7-.3.3-.6-.3-.4.3-2.9 1.4-5.8 1.1-2.8 2.2-5.8 2.3-6.6.1-.8.5-2.2.8-3 2.8-7.5 3.8-11.1 3.3-12-.3-.5-.2-1 .2-1 .5 0 .9-.9 1-2 .2-2.6 4.1-13.1 5.5-14.7.6-.7.8-1.3.4-1.3s0-1 .8-2.3c.8-1.2 1.5-2.4 1.5-2.7-.1-1.4 1.5-6.7 2.4-7.8.5-.6.6-1.2.2-1.2-.4 0-.2-.6.4-1.3.6-.8 1.2-2.2 1.4-3.3.2-1 1.3-4 2.5-6.6 1.2-2.6 2.2-5.4 2.2-6.2 0-.9.5-1.6 1.2-1.6.6 0 .8-.3.5-.6-.4-.4.3-2 1.4-3.5 1.1-1.6 1.8-2.9 1.4-2.9-.5 0 3.4-4.7 7.8-9.2.9-1 1.4-1.8 1.1-1.8-.4 0-.1-.6.5-1.3.6-.8.8-1.7.4-2-.3-.4 0-.7.7-.7s1.1-.3.7-.6c-.6-.7-.3-1.2 4.5-6.5 2.7-3 5.2-4.3 13.3-6.9 5.5-1.7 12.7-4.1 16-5.2 3.3-1.1 8.9-2.7 12.5-3.4 8.5-1.9 15.7-5.1 27.4-12.3 3.8-2.4 8.8-5.1 11.1-6.1 2.4-1 4.6-2.3 4.9-2.9.4-.6 2.4-1.1 4.5-1.1 3 0 4.4-.7 7.5-3.9l3.8-3.9-.7-9.4c-1.1-14.6-1.4-15.2-7-16.1-7.6-1.3-9.8-2.2-12.9-5.1-2.1-1.9-3.6-4.3-3.8-6.1-.3-2.7-.6-3-4-3-2 0-3.5-.3-3.3-.6.9-1.3-3.9-4.1-6.5-3.7-1.8.3-2.6 0-2.4-.7.3-.6-.6-2-1.8-3.1-2.3-1.9-2.3-1.9-.8.1 1.2 1.7 1.1 1.7-.6-.1-1.2-1.3-2.5-2-2.8-1.7-.3.4-.6 0-.6-.8 0-1.2-.2-1.1-1.1.1-.9 1.2-1 1.1-.6-.8.3-1.2.1-2-.4-1.6-.5.3-.9 0-.9-.6s-.4-.9-.8-.6c-1.2.7-4.4-5.2-3.6-6.6.4-.7.3-.8-.4-.4s-1.2.1-1.2-.9c0-.9-.4-1.4-.8-1.1-.4.2-.9-.5-.9-1.7-.1-1.2-.7-2.3-1.3-2.5-.5-.2-1-1.3-1-2.3 0-1.3-.4-1.8-1.2-1.3-1 .5-1 .4-.1-.6 1-1.1.9-1.7-.4-3.2-1-1.2-1.2-1.8-.4-1.8.7 0 .9-.5.6-1-.4-.6-1-.8-1.4-.6-.4.3-.8-.1-.8-.9s.4-1.2.8-.9c.9.5.4-3-.6-4.6-.3-.6-.1-1 .6-1s.4-.7-.7-1.5c-1-.8-1.4-1.5-.8-1.5.8 0 .9-1.1.4-3.4-.5-2.2-.4-3.9.4-4.6.8-.8.6-.9-.7-.4-1.5.5-1.6.3-.7-2.1 1.3-3.3 1.3-3.8-.1-3-.6.4-1 .1-.8-.6.1-.8.1-2.9 0-4.7-.1-2.4-.5-3.1-1.3-2.6-1.4.8.9-2.4 2.7-3.9.6-.5.3-.7-.7-.3-1 .3-2 .1-2.3-.4-.4-.6-.2-1 .3-1 .6 0 1.2-.7 1.5-1.4.4-1 .1-1.3-.9-.9-1.4.5-1.4.3-.3-1.5.7-1.1 1.8-1.8 2.4-1.4.5.3.4-.2-.3-1.1-.8-.9-1-2.2-.6-2.8.4-.7.3-.9-.3-.6-.5.3-1 0-1-.8s.4-1.2.9-.9c.4.3.8 0 .8-.5 0-.6-.6-1.1-1.2-1.1-.8 0-.9-.3-.3-.8.6-.4 1-1.9 1-3.4-.1-1.8.3-2.4 1-1.8.7.6 1.1.2 1.2-1.1.1-1.1-.2-1.7-.6-1.5-.8.6-.7-1.7.4-5.1.4-1.3 1.2-2 1.9-1.6.6.4.4-.2-.4-1.2s-1-1.6-.3-1.2c1.2.7 2.4-2 2.7-6.2.1-.9.7-2.6 1.3-3.7.7-1.2.9-2.4.6-2.8-.3-.3.2-.6 1.2-.6 1.4 0 1.5-.3.6-1.4-1.4-1.7.2-3.1 2.2-2 .8.5.8.2-.2-.9-1.2-1.5-1.1-1.7.5-1.7s1.7-.2.4-1c-1.3-.8-1.2-1 .3-1 1 0 1.5-.5 1.2-1-.3-.6.1-1.3.9-1.6.9-.3 1.3-1.1.9-1.7-.4-.7 0-.8 1.2-.3 1.5.5 1.6.4.5-.9-.7-.9-.9-1.5-.4-1.3.5.2 1.1-.2 1.4-.7.3-.6 1.6-2 3-3.3 1.4-1.3 1.8-2 1-1.6-1.2.6-1.3.5-.3-.8.7-.8.9-1.9.5-2.3-.4-.5-.2-.5.4-.2.6.4 2.2-.6 3.5-2.1 1.8-2 1.9-2.2.3-.9-1.1.9-2.5 1.7-3 1.7-.4 0 .2-.7 1.4-1.6 1.2-.8 2-2 1.7-2.5-.3-.5 0-.6.8-.3 1.8.6 4.1-2.1 3.1-3.7-.4-.8-.3-.9.4-.5s2 .2 2.9-.3c1.1-.6 1.3-1.1.5-1.1-.7 0-1-.5-.7-1 .4-.6 1-.8 1.5-.5.5.3 1.8-.3 2.9-1.4 1.1-1.1 2.2-1.7 2.5-1.4.3.4.6.1.6-.5 0-.7.6-1.2 1.4-1.2 2.1 0 9.6-4.2 9-5.1-.2-.4.5-.6 1.6-.4 1.1.2 2 0 2-.4s.7-.8 1.5-.9c.8-.1 2.2-.3 3-.4.8-.1 1.5-.5 1.5-.9 0-.8 8.4-2.2 15-2.4 4.1-.1 6.8.2 13.9 1.9 3.7.8 11.5 4.8 12.4 6.3.5.7 1.2 1.1 1.8.8.5-.4.9-.2.9.3 0 1 2.6 2.1 6.9 2.9 2.3.4 7.3 3.4 9.6 5.8.6.5 3.2 3.8 5.9 7.3 2.6 3.5 5.9 7.5 7.2 8.9 1.3 1.4 2.1 2.9 1.9 3.3-.3.4.2 1 1 1.4.8.3 1.5 1.2 1.5 2.1 0 .8.5 1.5 1.1 1.5.5 0 .7.5.4 1-.3.6.1 1.3.9 1.6.9.3 1.6 1.2 1.6 2s.4 1.4.8 1.4c.5 0 1.7 1.8 2.8 4 1 2.2 2.3 4 2.7 4 .5 0 .5.4.2 1-.3.5-.1 1 .5 1s.9.4.6.9c-.3.5.1 1.4.9 2.1.8.7 1.5 2.1 1.5 3.2 0 1 .4 1.6 1 1.3.6-.3 1 .3 1 1.3 0 1.1.7 2.5 1.5 3.2.9.7 1.3 1.5 1 1.8-.2.3.3 1.1 1.3 1.9 1 .9 1.1 1.2.2.7-.8-.4-.4.5 1 2.1s1.8 2.5 1 2c-.8-.4-.6.1.6 1.2 1.1 1.1 2.6 3.5 3.4 5.2.7 1.7 1.6 3.1 2 3.1.5 0 .7.8.6 1.7-.2 1 .1 2 .5 2.3.5.3.9 2 1.1 3.7.1 1.7.6 2.9 1 2.7.7-.4 1.2 3.9 1.1 8.3-.1.7.2 1.3.6 1.3.4 0 .7.9.8 2 .1 1.3-.2 1.8-1 1.3-.9-.5-.9-.3-.1.8 1.2 1.4 1.3 5.4.2 6.5-.4.3-.4 1.2-.1 2 .3.8 0 1.4-.6 1.4s-.8.7-.5 1.5c.4.8.1 1.5-.7 1.5-.7 0-1 .3-.6.6.3.4-.1 1.3-.9 2.1s-1.2 1.9-.9 2.4c.4.5-.1.9-1 .9s-1.4.3-1.2.7c.5 1-6 7.3-6.7 6.5-.3-.3-.6-.1-.6.4s-.9 1-2 1.1c-1.1.1-2-.2-2-.7 0-.4-.6-1-1.3-1.3-.9-.3-1.4.5-1.5 2.6-.2 1.7-.7 3.6-1.2 4.2-.6.7-.5 1.6.3 2.5.9 1 .9 1.1 0 .6-.8-.5-1.3-.1-1.3.9 0 1.2.5 1.5 1.8 1.1 1.6-.6 1.6-.5 0 .8-2.2 1.7-2.3 3-.2 2.2 1.1-.4 1.5-.2 1.1.6-.2.7-.1 2.2.3 3.3.4 1.1.3 2.5-.2 3.2-.5.7-.5 1.4.2 1.8 1.3.8 1.3 2.5-.1 2.5-.5 0-.7-.5-.3-1.2.4-.7.3-.8-.5-.4-.9.6-.9 1.2.1 2.4.7 1 .9 1.4.4 1-.5-.4-1.8-.2-3 .4-2 1.1-2 1.1-.1 1.9 1.6.6 1.7.8.3.8-.9.1-1.9 1-2.3 2-.4 1.3-1.2 1.8-2.2 1.4-1-.4-1.4-.2-1 .4.4.6.2 1.3-.5 1.5-1.4.5-1.9 24.1-.5 31 1.1 5.4 5.6 10.8 9.1 10.8 2.5 0 10.9 2.8 11.6 3.9.3.4 2.3 2 4.5 3.6s5.2 4.1 6.7 5.5c1.5 1.4 4.4 3.2 6.5 3.9 2.1.8 5.9 2.9 8.4 4.7 2.6 1.9 7 4.1 9.7 5 2.8.9 6 2.5 7.1 3.5 1.1 1.1 2.3 1.9 2.7 1.9.4 0 2.6.9 4.8 1.9 2.3 1.1 7.3 3.3 11.1 5 3.9 1.7 8.1 3.7 9.5 4.4 4.9 2.5 11.5 13.4 13.5 22.2 1 4.8 6.6 24.1 9.9 34.6 3.8 12.1 12.5 40 15.8 50.9 1.1 3.6 2.6 7.8 3.3 9.4 1.4 3.1 1 5.5-.9 5.8-2 .2-3.1.5-4.6 1.1-3.4 1.4-12.9 3.4-13.4 2.9-.3-.3-.6.1-.6.8 0 .7-.3 1-.6.7-.4-.3-1.5-.2-2.5.3-1.5.8-1.6 1.5-.8 4.2 1.2 4.1 3.9 22.6 4.4 29.3.2 2.7.4 5.3.4 5.7.1 1 16.3-4.8 24.4-8.8 15.6-7.7 32.6-22.4 42.6-36.8 5.2-7.6 13.1-22.5 13.1-24.8 0-.8.4-1.8.9-2.4.7-.8 2.4-6.4 5.8-19.9.4-1.7.8-69.4 1-150.5.2-140.3.1-148-1.6-157.5-6.7-35.4-28.6-65.5-60.3-82.3-6.3-3.3-23.3-9.6-28.8-10.6-1.9-.3-4.6-.9-6-1.3-1.4-.4-69.1-.8-150.5-.9C128 .2 103.2.4 96.6 1.6z"/><path d="M155.6 140.2c.3.5 1 .6 1.5.3 1.3-.9 1.1-1.2-.6-1.2-.8 0-1.2.4-.9.9z"/></svg>