<?xml version="1.0" standalone="no"?>
<!DOCTYPE svg PUBLIC "-//W3C//DTD SVG 20010904//EN"
 "http://www.w3.org/TR/2001/REC-SVG-20010904/DTD/svg10.dtd">
<svg version="1.0" xmlns="http://www.w3.org/2000/svg"
 width="500.000000pt" height="500.000000pt" viewBox="0 0 500.000000 500.000000"
 preserveAspectRatio="xMidYMid meet">
<metadata>
Created by potrace 1.11, written by Peter Selinger 2001-2013
</metadata>
<g transform="translate(0.000000,500.000000) scale(0.100000,-0.100000)"
fill="#000000" stroke="none">
<path d="M1968 4246 c-32 -7 -58 -11 -58 -9 0 2 -46 -28 -102 -66 -139 -93
-299 -250 -366 -361 -42 -69 -87 -177 -108 -265 -1 -5 -13 -41 -26 -80 -28
-84 -30 -187 -4 -315 10 -47 20 -116 22 -155 3 -38 9 -79 14 -90 5 -11 18 -47
28 -80 81 -253 179 -408 264 -417 24 -2 35 -12 55 -48 14 -25 33 -56 42 -70 9
-14 23 -38 31 -55 22 -45 168 -283 207 -339 20 -27 39 -62 44 -78 7 -24 4 -30
-19 -42 -28 -13 -52 -14 -260 -2 -108 6 -144 15 -239 57 -24 10 -49 19 -56 19
-7 0 -17 4 -23 10 -16 16 -74 18 -118 5 -41 -13 -115 -12 -158 0 -13 4 -47 18
-75 31 -114 54 -223 35 -403 -70 -69 -40 -150 -84 -181 -98 -50 -23 -129 -89
-129 -109 0 -8 -52 -66 -165 -184 -37 -38 -94 -106 -127 -150 l-59 -80 5 -107
c7 -140 22 -211 73 -351 114 -311 385 -573 708 -684 176 -60 64 -56 1675 -59
1611 -3 1561 -4 1740 55 301 101 536 305 679 588 22 44 41 88 41 96 0 9 4 18
9 22 6 3 13 26 17 51 5 37 1 56 -25 115 -17 38 -34 89 -36 112 -5 40 -103 251
-186 399 -54 97 -55 112 -19 218 41 118 36 156 -23 202 -23 18 -51 44 -62 58
-64 82 -173 171 -232 190 -52 17 -68 33 -88 88 -10 26 -35 76 -55 112 -21 36
-43 83 -50 105 -7 22 -16 45 -20 50 -4 6 -10 22 -14 37 -3 15 -24 42 -46 59
-28 23 -40 40 -40 58 0 46 -45 99 -98 115 -67 20 -304 14 -371 -10 -8 -2 -30
-7 -50 -10 -61 -10 -185 -73 -361 -183 -23 -15 -22 -12 8 26 18 23 49 77 69
120 38 82 43 132 23 203 -6 19 -10 53 -10 76 0 48 -22 118 -45 141 -36 35 -47
66 -61 164 -18 129 -37 210 -76 319 -17 47 -44 128 -60 180 -32 100 -47 124
-125 205 -103 108 -186 154 -348 196 -27 7 -85 27 -127 45 -42 18 -91 35 -110
39 -70 13 -283 14 -340 1z m1702 -2292 c5 -12 22 -28 38 -35 50 -22 78 -110
52 -159 -15 -27 -15 -130 -1 -172 9 -27 9 -43 2 -57 -6 -11 -11 -42 -11 -69 0
-42 4 -53 30 -75 17 -15 30 -37 30 -50 0 -12 4 -28 9 -35 5 -9 -2 -35 -20 -72
-25 -51 -33 -60 -63 -65 -19 -4 -45 -4 -58 0 -48 15 -195 89 -250 126 -31 22
-64 39 -72 39 -8 0 -17 4 -20 9 -3 4 -19 11 -35 14 -18 4 -40 21 -57 44 -16
21 -47 61 -69 89 -88 110 -81 189 23 256 31 20 73 45 92 56 154 86 204 120
270 181 l75 69 13 -37 c8 -20 17 -46 22 -57z m-600 -8 c0 -31 -33 -86 -45 -75
-10 11 -13 83 -4 101 15 29 49 11 49 -26z"/>
</g>
</svg>
