<?xml version="1.0" standalone="no"?>
<!DOCTYPE svg PUBLIC "-//W3C//DTD SVG 20010904//EN"
 "http://www.w3.org/TR/2001/REC-SVG-20010904/DTD/svg10.dtd">
<svg version="1.0" xmlns="http://www.w3.org/2000/svg"
 width="500.000000pt" height="500.000000pt" viewBox="0 0 500.000000 500.000000"
 preserveAspectRatio="xMidYMid meet">
<metadata>
Created by potrace 1.11, written by Peter Selinger 2001-2013
</metadata>
<g transform="translate(0.000000,500.000000) scale(0.100000,-0.100000)"
fill="#000000" stroke="none">
<path d="M966 4984 c-164 -30 -317 -92 -455 -185 -211 -142 -365 -343 -448
-584 -61 -177 -57 -61 -60 -1690 -2 -1414 -1 -1494 16 -1575 78 -357 265 -621
571 -800 57 -33 213 -100 235 -100 8 0 16 39 24 118 7 64 14 131 16 147 27
205 36 406 21 470 -11 45 -12 100 -4 191 3 35 -1 81 -8 110 -18 65 -10 108 43
239 65 162 128 285 168 332 58 68 166 126 352 189 92 31 179 61 193 67 52 20
68 26 165 60 55 20 110 39 122 42 13 4 47 22 75 42 29 19 75 46 101 60 35 17
53 34 63 58 15 36 19 131 7 138 -5 3 -39 8 -78 12 -38 4 -73 9 -76 11 -4 2
-11 -2 -17 -9 -7 -8 -4 -34 8 -81 17 -62 17 -73 4 -98 -18 -34 -19 -34 -22 -2
-3 40 -38 92 -63 94 -3 0 -13 -22 -22 -48 -33 -90 -118 -162 -191 -162 l-29 0
27 33 c48 58 61 93 50 133 -14 55 -35 64 -87 36 -56 -29 -63 -28 -36 9 38 54
28 78 -93 214 -119 133 -162 314 -136 561 9 84 40 204 68 269 38 87 98 235
134 333 96 261 167 393 266 493 71 72 125 101 268 148 94 31 160 34 276 13
110 -21 162 -39 305 -105 130 -60 284 -246 341 -413 29 -82 60 -215 56 -238
-1 -11 17 -53 41 -94 65 -110 113 -214 118 -257 3 -21 7 -50 9 -64 11 -68 17
-133 20 -202 5 -95 26 -143 62 -136 29 5 33 -17 6 -32 -11 -6 -36 -35 -57 -66
-50 -72 -92 -103 -157 -115 -70 -14 -79 -25 -34 -44 38 -16 44 -22 24 -24
-168 -14 -227 -71 -206 -197 12 -67 19 -75 65 -75 39 0 47 -8 87 -90 35 -73
61 -95 132 -114 28 -7 85 -36 126 -64 81 -55 105 -67 281 -141 154 -64 362
-202 424 -281 77 -97 84 -120 90 -293 4 -110 2 -174 -8 -223 -16 -84 -14 -73
-22 -109 -3 -16 -9 -46 -11 -65 -3 -19 -7 -44 -10 -55 -7 -37 -20 -160 -19
-190 1 -48 22 -373 28 -430 1 -16 3 -51 4 -77 l1 -47 53 15 c242 71 485 245
626 448 52 76 131 225 131 248 0 8 4 18 9 24 4 5 16 37 25 71 46 169 45 137
45 1668 0 1371 -1 1455 -19 1545 -69 354 -287 651 -602 818 -63 33 -233 96
-288 106 -19 3 -46 9 -60 13 -14 4 -691 8 -1505 9 -1245 2 -1493 0 -1559 -12z"/>
</g>
</svg>
